<svg width="276.66" height="134.43" version="1.1" viewBox="0 0 95.4 46.354" xmlns="http://www.w3.org/2000/svg" xmlns:xlink="http://www.w3.org/1999/xlink">
    <g transform="translate(-12.717 -75.199)">
        <defs>
            <rect id="SVGID_1_" width="95.4" height="123.03"/>
        </defs>
        <clipPath id="SVGID_2_">
            <use width="100%" height="100%" overflow="visible" xlink:href="#SVGID_1_"/>
        </clipPath>
        <path transform="translate(12.717 -1.4788)" d="m20.872 119.25c0-2.262 1.446-3.811 3.667-3.811 1.731 0 3.045 0.947 3.331 2.363h-0.896c-0.295-0.937-1.263-1.568-2.424-1.568-1.691 0-2.771 1.213-2.771 3.016 0 1.813 1.09 3.004 2.791 3.004 1.518 0 2.628-0.957 2.638-2.342l0.071-0.041h-3.32v-0.713h4.095c0.02 0.173 0.041 0.336 0.041 0.529 0 1.996-1.406 3.341-3.524 3.341-2.253 1e-3 -3.699-1.506-3.699-3.778m8.576-3.708h5.174v0.794h-4.308v2.516h4.003v0.754h-4.003v2.526h4.308v0.794h-5.174zm36.098 0v7.384h-0.938l-4.145-6.05v6.05h-0.866v-7.384h0.937l4.146 6.02v-6.02zm7.141 0-2.689 3.892v3.492h-0.865v-3.492l-2.73-3.892h1.009l2.159 3.249 2.149-3.249zm-29.662 0h0.998l2.811 4.451 2.77-4.451h0.988v7.384h-0.865v-6.111l-2.689 4.299h-0.418l-2.729-4.303v6.115h-0.866zm-3.646 4.349c1.446-0.02 2.394-0.824 2.394-2.18 0-1.283-0.947-2.169-2.455-2.169h-3.29v7.384h0.866v-6.59h2.353c0.978 0 1.619 0.51 1.619 1.416 0 0.865-0.57 1.447-1.619 1.447h-1.528l3.188 3.727h1.09zm16.175-4.349h-1.029l-2.912 7.384h0.947l0.429-1.118 0.911-2.419h6e-3l1.139-2.991 1.519 3.982h-2.218l0.12 0.714h2.362l0.703 1.832h0.967zm-43.211-17.78h3.351v8.396c0 1.489 0.949 2.29 2.345 2.29 1.545 0 2.345-0.912 2.345-2.29v-8.396h3.332v8.525c0 3.127-2.066 5.156-5.677 5.156-3.444 0-5.696-1.898-5.696-5.156zm62.415 6.743c0 4.612-1.88 6.929-4.914 6.929-3.295 0-4.952-2.602-4.952-6.986 0-4.574 1.844-6.871 4.952-6.871 3.201 0 4.914 2.562 4.914 6.928m-2.476 0c0-3.303-0.838-4.821-2.438-4.821-1.712 0-2.457 1.746-2.457 4.764 0 3.342 0.837 4.859 2.457 4.859 1.694 0 2.438-1.746 2.438-4.802m-72.282 6.753h9.716v-2.885h-6.365v-2.477h5.807v-2.717h-5.807v-2.514h6.366v-2.904h-9.717zm37.955-9.084c0-2.531-1.768-4.412-5.1-4.412h-6.515v13.496h3.35v-10.498h2.848c1.135 0 1.898 0.559 1.898 1.675 0 1.042-0.633 2.19-1.898 2.19h-1.542l2.546 6.633h3.59l-2.463-4.438c2.067-0.427 3.286-2.468 3.286-4.646m12.411 2.229c0 2.172-1.109 3.662-2.868 3.977l0.462 2.991c3.638-0.47 5.975-3.139 5.975-6.968 0-4.211-2.852-7.024-7.156-7.024-4.305 0-7.156 2.813-7.156 7.024 0 3.829 2.337 6.498 5.975 6.968l0.462-2.991c-1.759-0.314-2.868-1.805-2.868-3.977 0-2.418 1.416-4.041 3.587-4.041s3.587 1.623 3.587 4.041m43.192 1.551v-8.191h-3.184l-5.689 8.508v1.768h4.869l0.322-2.084h-2.549l3.861-5.914 2e-3 -6e-3v4e-3l4e-3 -4e-3v5.92h-2e-3v2.084h2e-3v3.221h2.363v-3.221h1.843v-2.084h-1.842zm-34.787 3.201s1.408-1.285 1.876-1.713c2.2-2.008 3.457-3.842 3.457-5.77 0-2.383-1.8-4.096-4.573-4.096-2.811 0-4.607 1.73-4.553 4.43l2.29 0.131c-0.074-1.434 0.735-2.476 2.15-2.476 1.358 0 2.247 0.856 2.21 2.196-0.037 1.303-1.014 2.629-2.582 4.096-1.006 0.939-3.992 3.497-3.992 3.497v1.808h9.164v-2.104h-5.447zm20.368 0s1.407-1.285 1.876-1.713c2.199-2.008 3.457-3.842 3.457-5.77 0-2.383-1.801-4.096-4.574-4.096-2.811 0-4.607 1.73-4.552 4.43l2.29 0.131c-0.074-1.434 0.735-2.476 2.15-2.476 1.358 0 2.246 0.856 2.209 2.196-0.037 1.303-1.014 2.629-2.582 4.096-1.006 0.939-3.992 3.497-3.992 3.497v1.808h9.165v-2.104h-5.447zm-14.105-25.781c-5.006-4.321-11.488-6.7-18.255-6.7s-13.25 2.379-18.255 6.7c-0.481 0.416-0.944 0.847-1.388 1.292l0.895 1.104c0.451-0.457 0.923-0.9 1.417-1.326 4.749-4.099 10.904-6.356 17.332-6.356 6.427 0 12.583 2.258 17.332 6.356 0.494 0.426 0.966 0.869 1.418 1.326l0.895-1.104c-0.446-0.445-0.909-0.876-1.391-1.292m-18.255 5.064c-4.936 0-9.415 2.208-12.146 5.475l0.866 1.07c2.481-3.088 6.701-5.211 11.28-5.211s8.798 2.123 11.28 5.211l0.866-1.07c-2.732-3.267-7.21-5.475-12.146-5.475m15.029-3.711-0.258-0.198c-0.401-0.31-0.719-0.177-0.951-0.026l-6.018 3.895 1.573 0.891 3.836-2.482-0.661 2.23-0.582-0.438-1.005 0.721 1.248 0.932-0.29 1.002 1.378 1.261 1.997-6.874c0.08-0.244 0.138-0.602-0.267-0.914m-9.427-2.707 2.534 0.657 0.4-1.545-2.605-0.675c-1.428-0.371-2.406 0.164-2.753 1.504l-1.064 4.107c-0.049 0.189-0.029 0.369 0.058 0.518 0.087 0.148 0.233 0.253 0.425 0.303l0.967 0.25 0.686-2.655 2.932 0.76 0.396-1.528-2.933-0.76 0.114-0.438c0.15-0.583 0.324-0.632 0.843-0.498m-8.221-2.265-4.228 0.858c-0.193 0.039-0.346 0.136-0.441 0.279-0.096 0.145-0.125 0.322-0.086 0.516l0.843 4.152c0.137 0.674 0.44 1.161 0.9 1.445 0.305 0.188 0.669 0.281 1.09 0.281 0.214-1e-3 0.443-0.025 0.685-0.074l2.643-0.537-0.318-1.566-2.571 0.521c-0.526 0.107-0.697 0.049-0.817-0.543l-0.09-0.445 2.974-0.604-0.314-1.549-2.974 0.604-0.226-1.112 3.25-0.659zm-6.643 8.551c0.086-0.752-0.144-1.452-0.702-2.142l-2.636-3.242-1.306 1.061 2.42 2.979c0.422 0.518 0.539 0.804 0.499 1.228-0.029 0.333-0.233 0.677-0.559 0.942-0.325 0.264-0.702 0.393-1.036 0.354-0.422-0.049-0.679-0.222-1.099-0.74l-2.421-2.977-1.306 1.061 2.636 3.244c0.561 0.688 1.199 1.055 1.953 1.123 0.089 9e-3 0.177 0.014 0.264 0.014 0.729 7e-3 1.407-0.25 2.064-0.781 0.733-0.6 1.134-1.295 1.229-2.124" clip-path="url(#SVGID_2_)" fill="#143cdb"/>
    </g>
</svg>
